<svg width="53" height="53" viewBox="0 0 53 53" fill="none" xmlns="http://www.w3.org/2000/svg">
<path d="M2.19216 12.1435C3.48911 7.27997 7.27458 3.47305 12.1307 2.14865L13.7477 1.70764C22.0962 -0.569219 30.9021 -0.569218 39.2506 1.70764L40.8676 2.14865C45.7238 3.47305 49.5092 7.27997 50.8062 12.1435L51.362 14.2278C53.5927 22.5929 53.5418 31.4029 51.2147 39.7417L50.8676 40.9854C49.5303 45.7776 45.772 49.5138 40.972 50.8229L39.2506 51.2924C30.9021 53.5692 22.0962 53.5692 13.7477 51.2924L12.0263 50.8229C7.22634 49.5138 3.46806 45.7776 2.13071 40.9854L1.78361 39.7417C-0.543493 31.4029 -0.594342 22.5929 1.63635 14.2278L2.19216 12.1435Z" fill="#0D986A"/>
<circle opacity="0.6" cx="14.3834" cy="23.4711" r="4.03857" fill="white"/>
<circle opacity="0.6" cx="39.3467" cy="23.4711" r="4.03857" fill="white"/>
<path d="M14.3834 24.4807C16.4869 41.9812 37.5211 41.9812 39.6245 24.4807" stroke="white" stroke-width="1.5"/>
</svg>
