<svg width="13" height="12" viewBox="0 0 13 12" fill="none" xmlns="http://www.w3.org/2000/svg">
<path d="M5.79066 0.357736C5.9445 -0.11929 6.61941 -0.11929 6.77326 0.357736L7.89583 3.83852C7.96473 4.05216 8.16379 4.19678 8.38825 4.19629L12.0456 4.1883C12.5468 4.1872 12.7554 4.82908 12.3492 5.1228L9.38568 7.26605C9.20379 7.3976 9.12776 7.6316 9.19759 7.84494L10.3354 11.3208C10.4913 11.7971 9.94528 12.1938 9.54043 11.8983L6.58629 9.74215C6.40498 9.60982 6.15893 9.60982 5.97762 9.74215L3.02349 11.8983C2.61864 12.1938 2.07262 11.7971 2.22855 11.3208L3.36633 7.84494C3.43616 7.6316 3.36013 7.3976 3.17824 7.26605L0.214705 5.1228C-0.191434 4.82908 0.0171248 4.1872 0.518344 4.1883L4.17566 4.19629C4.40013 4.19678 4.59919 4.05216 4.66809 3.83852L5.79066 0.357736Z" fill="#0D986A"/>
</svg>
