<svg width="19" height="20" viewBox="0 0 19 20" fill="none" xmlns="http://www.w3.org/2000/svg">
<path fill-rule="evenodd" clip-rule="evenodd" d="M10.3492 1.53683C10.3492 1.69151 10.3264 1.84085 10.2839 1.98166C11.3284 2.22469 12.2759 2.72079 13.058 3.40182C12.7287 3.64632 12.4334 3.93404 12.1805 4.25657C11.3429 3.55505 10.2832 3.11005 9.12212 3.04244C9.02207 3.06291 8.91848 3.07366 8.81238 3.07366C8.70625 3.07366 8.60263 3.06291 8.50256 3.04242C5.74785 3.20267 3.56339 5.48735 3.56339 8.28224V14.7025L14.061 14.7025V11.317C14.4445 11.4729 14.8539 11.5782 15.2809 11.6247V14.7025H17.0145C17.3513 14.7025 17.6244 14.9756 17.6244 15.3125C17.6244 15.6494 17.3513 15.9225 17.0145 15.9225H15.2809V15.9227H14.6709H2.95343H2.34347V15.9225H0.609959C0.273088 15.9225 0 15.6494 0 15.3125C0 14.9756 0.273088 14.7025 0.609959 14.7025H2.34347V8.28224C2.34347 5.21578 4.47717 2.64767 7.34089 1.98158C7.29839 1.84079 7.27555 1.69148 7.27555 1.53683C7.27555 0.688063 7.96361 0 8.81238 0C9.66115 0 10.3492 0.688063 10.3492 1.53683ZM5.3672 17.1856C5.69206 18.7912 7.11116 20 8.81257 20C10.514 20 11.9331 18.7912 12.2579 17.1856H10.9989C10.7027 18.1105 9.83581 18.7801 8.81257 18.7801C7.78933 18.7801 6.92247 18.1105 6.62621 17.1856H5.3672Z" fill="#002140"/>
<circle cx="15.7823" cy="7.07722" r="3.04979" fill="#0D986A"/>
</svg>
