<svg width="17" height="20" viewBox="0 0 17 20" fill="none" xmlns="http://www.w3.org/2000/svg">
<path fill-rule="evenodd" clip-rule="evenodd" d="M14.2575 7.32669H2.37625C1.72007 7.32669 1.18812 7.85863 1.18812 8.51482V17.6238C1.18812 18.2799 1.72006 18.8119 2.37625 18.8119H14.2575C14.9137 18.8119 15.4456 18.2799 15.4456 17.6238V8.51481C15.4456 7.85863 14.9137 7.32669 14.2575 7.32669ZM2.37625 6.13857C1.06388 6.13857 0 7.20245 0 8.51482V17.6238C0 18.9361 1.06388 20 2.37625 20H14.2575C15.5698 20 16.6337 18.9361 16.6337 17.6238V8.51481C16.6337 7.20245 15.5698 6.13857 14.2575 6.13857H2.37625Z" fill="#004A61"/>
<path fill-rule="evenodd" clip-rule="evenodd" d="M8.31686 14.6535C9.19177 14.6535 9.90102 13.9442 9.90102 13.0693C9.90102 12.1944 9.19177 11.4852 8.31686 11.4852C7.44195 11.4852 6.7327 12.1944 6.7327 13.0693C6.7327 13.9442 7.44195 14.6535 8.31686 14.6535ZM8.31686 15.8416C9.84795 15.8416 11.0891 14.6004 11.0891 13.0693C11.0891 11.5382 9.84795 10.297 8.31686 10.297C6.78577 10.297 5.54457 11.5382 5.54457 13.0693C5.54457 14.6004 6.78577 15.8416 8.31686 15.8416Z" fill="#004A61"/>
<path fill-rule="evenodd" clip-rule="evenodd" d="M6.53477 1.18812C5.5505 1.18812 4.75259 1.98603 4.75259 2.97031V6.13863C4.75259 6.46673 4.48662 6.7327 4.15853 6.7327C3.83043 6.7327 3.56446 6.46673 3.56446 6.13863V2.97031C3.56446 1.32985 4.89432 0 6.53477 0H10.0991C11.7396 0 13.0694 1.32985 13.0694 2.97031V6.13863C13.0694 6.46673 12.8035 6.7327 12.4754 6.7327C12.1473 6.7327 11.8813 6.46673 11.8813 6.13863V2.97031C11.8813 1.98603 11.0834 1.18812 10.0991 1.18812H6.53477Z" fill="#004A61"/>
</svg>
