<svg width="280" height="175" viewBox="0 0 280 175" fill="none" xmlns="http://www.w3.org/2000/svg">
<mask id="mask0_1_13" style="mask-type:alpha" maskUnits="userSpaceOnUse" x="-1" y="0" width="281" height="175">
<path opacity="0.8" d="M280 40.2917C280 27.6958 270.266 17.2414 257.702 16.3439L29.9036 0.0726374C13.6893 -1.08552 -0.102363 11.7562 -0.102363 28.0117V150.985C-0.102363 164.245 10.6467 174.994 23.9064 174.994H255.991C269.251 174.994 280 164.245 280 150.985V40.2917Z" fill="#9CE5CB"/>
</mask>
<g mask="url(#mask0_1_13)">
<g style="mix-blend-mode:screen" opacity="0.7">
<path fill-rule="evenodd" clip-rule="evenodd" d="M241.739 160.992C240.178 161.995 238.696 162.948 237.303 163.849C230.334 168.361 223.82 174.046 217.201 179.823L216.788 180.183C210.008 186.1 203.095 192.099 195.365 197.144C179.963 207.198 161.304 213.475 134.171 207.373C99.9201 199.669 59.4312 178.199 32.1319 152.711C18.4813 139.967 8.19836 126.282 3.59989 112.886C-0.982736 99.5354 0.076886 86.4879 9.08351 74.8186C21.7096 58.4598 32.0018 46.9636 46.0228 38.4528C60.0468 29.9403 77.8814 24.3675 105.661 20.0311C116.556 18.3305 126.43 14.4489 136.107 9.85116C140.355 7.83245 144.577 5.67007 148.83 3.49194C149.419 3.19062 150.007 2.88902 150.597 2.58744C155.455 0.10293 160.368 -2.38199 165.455 -4.69767C185.761 -13.9416 208.827 -20.4895 241.489 -13.1433C254.042 -10.3201 265.734 -8.28843 276.33 -6.44723C280.282 -5.76049 284.082 -5.10023 287.717 -4.43528C301.139 -1.98006 312.284 0.534655 320.762 4.65511C329.191 8.75181 334.927 14.4069 337.625 23.1628C340.344 31.984 340.018 44.0724 335.996 61.0972C330.245 85.4449 312.366 106.767 292.454 124.223C274.615 139.861 255.25 152.308 241.739 160.992ZM242.25 161.789C270.826 143.422 325.882 108.037 336.918 61.3149C350.122 5.41415 324.072 0.8876 276.471 -7.38353C265.882 -9.22365 254.225 -11.2491 241.697 -14.0668C199.547 -23.5469 173.2 -10.0528 148.4 2.64898C134.46 9.78831 121.009 16.6773 105.515 19.0958C49.8536 27.7844 33.6142 41.4866 8.33417 74.2403C-28.5924 122.083 65.1225 192.813 133.963 208.296C175.349 217.604 197.368 198.388 217.799 180.557C224.436 174.765 230.906 169.118 237.818 164.644C239.208 163.744 240.69 162.792 242.25 161.789Z" fill="#FFF1C2"/>
<path fill-rule="evenodd" clip-rule="evenodd" d="M238.641 160.422C237.289 161.289 236.005 162.112 234.798 162.891C228.752 166.796 223.104 171.715 217.373 176.706L217.012 177.021C211.138 182.136 205.157 187.316 198.469 191.67C185.151 200.343 169.019 205.755 145.54 200.474C115.878 193.803 80.8015 175.228 57.1494 153.188C45.3223 142.168 36.4218 130.345 32.4406 118.785C28.4754 107.271 29.3872 96.034 37.1563 85.9852C48.0889 71.8447 56.991 61.9222 69.1166 54.58C81.2452 47.2359 96.6792 42.4267 120.744 38.6887C130.202 37.2196 138.769 33.8609 147.158 29.8862C150.841 28.1409 154.501 26.2712 158.186 24.389C158.695 24.1289 159.205 23.8686 159.715 23.6083C163.923 21.4616 168.178 19.3156 172.582 17.3162C190.158 9.33749 210.115 3.69196 238.389 10.0511C249.271 12.4986 259.409 14.2613 268.593 15.8581C272.017 16.4535 275.309 17.0259 278.458 17.6021C290.091 19.7312 299.734 21.9083 307.066 25.4671C314.349 29.0022 319.292 33.8716 321.622 41.4041C323.971 49.0017 323.7 59.4293 320.224 74.1436C315.26 95.159 299.8 113.57 282.558 128.654C267.114 142.164 250.346 152.916 238.641 160.422ZM239.151 161.219C263.906 145.346 311.602 114.765 321.145 74.3612C332.564 26.0201 309.987 22.0946 268.734 14.9218C259.557 13.3261 249.511 11.6302 238.653 9.18814C202.122 0.972008 179.24 12.5712 157.754 23.5465C145.678 29.7154 134.024 35.668 120.599 37.7533C72.3674 45.2451 58.3006 57.089 36.4074 85.4063C4.42816 126.769 85.6696 187.979 145.332 201.398C181.2 209.465 200.273 192.854 217.97 177.441C223.72 172.434 229.324 167.553 235.311 163.687C236.516 162.908 237.799 162.086 239.151 161.219Z" fill="#FFF1C2"/>
</g>
<g style="mix-blend-mode:screen" opacity="0.7">
<path fill-rule="evenodd" clip-rule="evenodd" d="M222.387 147.351C221.325 148.076 220.315 148.765 219.367 149.417C214.622 152.678 210.17 156.762 205.647 160.913L205.365 161.172C200.732 165.422 196.009 169.733 190.745 173.379C180.257 180.644 167.615 185.278 149.397 181.263C126.399 176.196 99.3475 161.475 81.2272 143.776C72.1664 134.925 65.3852 125.375 62.4315 115.966C59.488 106.59 60.3434 97.3664 66.5392 89.0299C75.2249 77.3431 82.2851 69.1148 91.8257 62.9539C101.368 56.7918 113.447 52.6639 132.214 49.3014C139.575 47.9826 146.27 45.1351 152.841 41.7841C155.726 40.3127 158.595 38.7403 161.484 37.1564C161.884 36.9372 162.284 36.7179 162.685 36.4986C165.985 34.6918 169.323 32.8841 172.776 31.1941C186.56 24.4475 202.175 19.5745 224.105 24.4074C232.534 26.2647 240.391 27.5725 247.511 28.7577C250.167 29.1997 252.72 29.6247 255.163 30.0548C264.181 31.6429 271.664 33.2977 277.333 36.115C282.969 38.9162 286.773 42.8468 288.496 48.9996C290.232 55.1983 289.882 63.7367 286.987 75.8005C282.848 93.0533 270.569 108.301 256.961 120.842C244.77 132.076 231.586 141.074 222.387 147.351ZM222.723 147.909C242.178 134.632 279.663 109.051 287.606 75.9442C297.109 36.3329 279.604 33.4192 247.617 28.0951C240.5 26.9106 232.667 25.6068 224.255 23.7531C195.954 17.5164 178.053 27.3292 161.203 36.5659C151.732 41.7575 142.593 46.7672 132.126 48.6426C94.5228 55.3801 83.431 65.2303 66.0405 88.6296C40.6382 122.809 103.024 171.732 149.247 181.918C177.035 188.041 192.082 174.235 206.042 161.425C210.578 157.263 214.999 153.206 219.705 149.972C220.652 149.322 221.66 148.633 222.723 147.909Z" fill="#FFF1C2"/>
<path fill-rule="evenodd" clip-rule="evenodd" d="M220.305 146.982C219.385 147.609 218.511 148.204 217.689 148.768C213.573 151.59 209.713 155.124 205.797 158.71L205.55 158.936C201.537 162.611 197.45 166.333 192.896 169.48C183.827 175.748 172.898 179.744 157.133 176.27C137.217 171.881 113.781 159.146 98.0808 143.842C90.2301 136.189 84.3603 127.938 81.8028 119.819C79.2554 111.732 79.9916 103.789 85.3359 96.6099C92.8563 86.5076 98.9627 79.4055 107.213 74.0902C115.466 68.7736 125.919 65.2109 142.176 62.311C148.566 61.1713 154.375 58.7071 160.071 55.8099C162.572 54.5378 165.059 53.1781 167.562 51.8092C167.908 51.62 168.255 51.4307 168.601 51.2414C171.46 49.6802 174.351 48.1189 177.34 46.6596C189.271 40.8358 202.781 36.6337 221.765 40.8172C229.072 42.4274 235.884 43.562 242.056 44.59C244.357 44.9733 246.569 45.3417 248.684 45.7145C256.501 47.0917 262.975 48.5243 267.877 50.9575C272.747 53.3746 276.026 56.759 277.514 62.052C279.015 67.3908 278.719 74.7561 276.217 85.1827C272.644 100.074 262.027 113.241 250.245 124.077C239.691 133.783 228.275 141.556 220.305 146.982ZM220.641 147.54C237.495 136.065 269.967 113.956 276.836 85.3263C285.054 51.0718 269.883 48.5448 242.161 43.9274C235.994 42.9002 229.242 41.8116 221.952 40.2051C197.424 34.7999 181.879 43.2373 167.281 51.219C159.076 55.7053 151.158 60.0344 142.089 61.6522C109.505 67.4642 99.8976 75.9789 84.8375 96.2092C62.8393 125.76 116.923 168.096 156.983 176.924C181.066 182.231 194.099 170.297 206.192 159.223C210.12 155.625 213.95 152.119 218.027 149.324C218.847 148.761 219.72 148.166 220.641 147.54Z" fill="#FFF1C2"/>
</g>
</g>
</svg>
