<svg width="280" height="176" viewBox="0 0 280 176" fill="none" xmlns="http://www.w3.org/2000/svg">
<mask id="mask0_1_82" style="mask-type:alpha" maskUnits="userSpaceOnUse" x="0" y="0" width="280" height="176">
<path opacity="0.5" d="M0 24.0012C0 10.073 11.8171 -0.930121 25.7099 0.0622232L257.71 16.6336C270.269 17.5307 280 27.9813 280 40.5727V151.226C280 164.481 269.255 175.226 256 175.226H24C10.7452 175.226 0 164.481 0 151.226V24.0012Z" fill="#56D1A7"/>
</mask>
<g mask="url(#mask0_1_82)">
<g style="mix-blend-mode:screen" opacity="0.7">
<path fill-rule="evenodd" clip-rule="evenodd" d="M216.753 161.229C215.193 162.231 213.711 163.184 212.319 164.085C205.352 168.595 198.84 174.278 192.224 180.053L191.811 180.413C185.033 186.327 178.123 192.325 170.396 197.368C154.999 207.418 136.348 213.693 109.224 207.592C74.9859 199.892 34.5118 178.429 7.22247 152.951C-6.42315 140.211 -16.7023 126.532 -21.2991 113.14C-25.8801 99.7947 -24.8208 86.752 -15.8175 75.087C-3.19596 58.7341 7.09241 47.2421 21.1083 38.7345C35.1271 30.225 52.9552 24.6542 80.7251 20.3195C91.6161 18.6194 101.486 14.7393 111.159 10.1432C115.406 8.12527 119.627 5.96368 123.878 3.78634C124.466 3.48514 125.055 3.18364 125.644 2.88217C130.5 0.398573 135.412 -2.08544 140.497 -4.40027C160.796 -13.6408 183.853 -20.1863 216.504 -12.8428C229.052 -10.0206 240.739 -7.98972 251.331 -6.1492C255.282 -5.46271 259.08 -4.80269 262.714 -4.13798C276.131 -1.68366 287.272 0.830126 295.747 4.94908C304.173 9.04428 309.907 14.6973 312.604 23.45C315.322 32.268 314.996 44.352 310.976 61.3706C305.227 85.7093 287.354 107.024 267.449 124.473C249.617 140.105 230.259 152.548 216.753 161.229ZM217.264 162.025C245.829 143.666 300.865 108.293 311.897 61.5881C325.096 5.70785 299.055 1.18295 251.473 -7.08516C240.887 -8.9246 229.235 -10.9493 216.711 -13.766C174.576 -23.2426 148.239 -9.75347 123.448 2.94369C109.513 10.0804 96.0672 16.9669 80.5792 19.3845C24.9377 28.0699 8.70427 41.7671 -16.5666 74.5088C-53.4796 122.335 40.201 193.038 109.016 208.516C150.388 217.821 172.398 198.611 192.821 180.787C199.456 174.996 205.924 169.352 212.833 164.879C214.223 163.979 215.704 163.028 217.264 162.025Z" fill="#FFF1C2"/>
<path fill-rule="evenodd" clip-rule="evenodd" d="M213.656 160.659C212.305 161.525 211.021 162.348 209.814 163.128C203.771 167.03 198.125 171.948 192.396 176.937L192.035 177.252C186.164 182.365 180.184 187.543 173.499 191.896C160.185 200.565 144.059 205.975 120.589 200.696C90.9377 194.028 55.8743 175.46 32.2308 153.428C20.4081 142.411 11.5108 130.593 7.53109 119.037C3.56735 107.527 4.47882 96.2946 12.2451 86.2495C23.1736 72.1142 32.0725 62.1953 44.1937 54.8557C56.3179 47.5143 71.7462 42.7069 95.8025 38.9703C105.257 37.5017 113.821 34.1442 122.206 30.171C125.888 28.4263 129.547 26.5573 133.231 24.6757C133.739 24.4157 134.249 24.1555 134.759 23.8954C138.966 21.7494 143.219 19.6042 147.621 17.6056C165.191 9.62976 185.141 3.98629 213.404 10.3431C224.283 12.7897 234.416 14.5517 243.597 16.148C247.02 16.7432 250.311 17.3154 253.458 17.8914C265.087 20.0197 274.727 22.196 282.056 25.7534C289.336 29.2873 294.278 34.1549 296.606 41.6846C298.955 49.2794 298.684 59.7033 295.209 74.4122C290.247 95.4199 274.793 113.825 257.557 128.902C242.119 142.408 225.357 153.156 213.656 160.659ZM214.166 161.456C238.912 145.589 286.59 115.019 296.13 74.6297C307.544 26.3062 284.976 22.3822 243.739 15.2121C234.564 13.6169 224.522 11.9216 213.668 9.48046C177.151 1.26733 154.277 12.8623 132.799 23.8336C120.727 30.0002 109.078 35.9506 95.6573 38.0352C47.4433 45.5243 33.3816 57.3639 11.4964 85.6707C-20.4711 127.018 60.7406 188.206 120.381 201.62C156.236 209.684 175.302 193.079 192.993 177.672C198.74 172.667 204.342 167.788 210.328 163.922C211.532 163.145 212.815 162.322 214.166 161.456Z" fill="#FFF1C2"/>
</g>
<g style="mix-blend-mode:screen" opacity="0.7">
<path fill-rule="evenodd" clip-rule="evenodd" d="M197.408 147.593C196.346 148.318 195.337 149.007 194.389 149.658C189.645 152.918 185.195 157.001 180.674 161.15L180.392 161.409C175.761 165.658 171.039 169.967 165.777 173.611C155.293 180.874 142.656 185.506 124.444 181.493C101.455 176.427 74.4133 161.712 56.2996 144.019C47.2421 135.172 40.4634 125.625 37.5108 116.22C34.5684 106.847 35.4235 97.6265 41.617 89.293C50.2995 77.6105 57.3571 69.3852 66.8943 63.2266C76.4334 57.0667 88.5077 52.9404 107.268 49.579C114.626 48.2607 121.319 45.4143 127.887 42.0645C130.771 40.5937 133.639 39.0218 136.527 37.4385C136.927 37.2194 137.327 37.0002 137.727 36.7809C141.026 34.9748 144.363 33.1678 147.815 31.4783C161.594 24.7343 177.203 19.8631 199.126 24.6942C207.551 26.5508 215.405 27.8581 222.523 29.0428C225.178 29.4847 227.73 29.9096 230.172 30.3395C239.186 31.927 246.667 33.5812 252.333 36.3975C257.967 39.1976 261.77 43.1268 263.493 49.2773C265.228 55.4738 264.878 64.0091 261.985 76.0685C257.847 93.3149 245.572 108.557 231.969 121.093C219.783 132.323 206.603 141.318 197.408 147.593ZM197.743 148.15C217.192 134.878 254.663 109.307 262.603 76.2121C272.103 36.6153 254.604 33.7026 222.628 28.3805C215.514 27.1964 207.684 25.8931 199.275 24.0401C170.985 17.8057 153.09 27.6149 136.246 36.8482C126.779 42.038 117.643 47.0458 107.18 48.9205C69.5903 55.6555 58.5026 65.5022 41.1184 88.8929C15.7254 123.06 78.0888 171.965 124.294 182.147C152.073 188.268 167.113 174.467 181.069 161.661C185.603 157.501 190.022 153.446 194.727 150.213C195.673 149.563 196.682 148.875 197.743 148.15Z" fill="#FFF1C2"/>
<path fill-rule="evenodd" clip-rule="evenodd" d="M195.327 147.224C194.407 147.851 193.533 148.446 192.712 149.009C188.597 151.83 184.739 155.363 180.824 158.948L180.577 159.174C176.565 162.847 172.48 166.568 167.928 169.714C158.862 175.979 147.937 179.974 132.177 176.501C112.268 172.114 88.8412 159.384 73.147 144.085C65.2992 136.434 59.4316 128.187 56.8749 120.071C54.3286 111.987 55.0645 104.047 60.4068 96.8702C67.9244 86.7717 74.0287 79.6721 82.2763 74.3588C90.5261 69.0441 100.975 65.4827 117.227 62.5839C123.614 61.4446 129.421 58.9814 135.115 56.0852C137.615 54.8135 140.101 53.4543 142.603 52.0859C142.949 51.8969 143.295 51.7076 143.642 51.5184C146.5 49.9577 149.389 48.397 152.378 46.9382C164.304 41.1166 177.809 36.916 196.786 41.0979C204.09 42.7075 210.9 43.8418 217.069 44.8694C219.37 45.2525 221.581 45.6209 223.696 45.9935C231.509 47.3701 237.981 48.8023 242.882 51.2346C247.749 53.6508 251.027 57.0339 252.514 62.325C254.015 67.6619 253.719 75.0245 251.218 85.4472C247.647 100.333 237.033 113.495 225.255 124.327C214.705 134.03 203.293 141.8 195.327 147.224ZM195.662 147.782C212.51 136.311 244.97 114.21 251.837 85.5908C260.052 51.3488 244.886 48.8227 217.175 44.207C211.01 43.1802 204.261 42.092 196.973 40.486C172.454 35.0828 156.914 43.5172 142.322 51.496C134.12 55.9807 126.205 60.3081 117.139 61.9253C84.5673 67.7352 74.9632 76.2468 59.9086 96.4697C37.9184 126.009 91.9824 168.33 132.027 177.155C156.102 182.46 169.13 170.53 181.218 159.46C185.146 155.864 188.974 152.359 193.049 149.565C193.869 149.002 194.742 148.408 195.662 147.782Z" fill="#FFF1C2"/>
</g>
</g>
</svg>
