<svg width="19" height="20" viewBox="0 0 19 20" fill="none" xmlns="http://www.w3.org/2000/svg">
<path d="M3.52723 16.1908L2.79541 3.75H16.2046L15.4728 16.1908C15.3717 17.9087 13.9492 19.25 12.2284 19.25H6.77162C5.05082 19.25 3.62828 17.9087 3.52723 16.1908Z" stroke="#0D986A" stroke-width="1.5"/>
<rect x="19" y="3" width="2" height="19" rx="1" transform="rotate(90 19 3)" fill="#0D986A"/>
<rect x="14" width="2" height="9" rx="1" transform="rotate(90 14 0)" fill="#0D986A"/>
<path d="M8 15.4723C8 15.7637 7.76374 16 7.47231 16C7.20342 16 6.97754 15.7978 6.94784 15.5306L6.11655 8.04893C6.05438 7.48937 6.49238 7 7.05539 7C7.57708 7 8 7.42292 8 7.94461L8 15.4723Z" fill="#0D986A"/>
<path d="M12.0522 15.5306C12.0225 15.7978 11.7966 16 11.5277 16C11.2363 16 11 15.7637 11 15.4723L11 7.94461C11 7.42292 11.4229 7 11.9446 7C12.5076 7 12.9456 7.48937 12.8835 8.04893L12.0522 15.5306Z" fill="#0D986A"/>
</svg>
