<svg width="20" height="21" viewBox="0 0 20 21" fill="none" xmlns="http://www.w3.org/2000/svg">
<ellipse cx="3.2801" cy="13.292" rx="3.33235" ry="2.14071" transform="rotate(13.3605 3.2801 13.292)" fill="#0D986A"/>
<ellipse cx="4.50808" cy="7.03442" rx="3.6872" ry="2.78829" transform="rotate(39.1947 4.50808 7.03442)" fill="#0D986A"/>
<ellipse cx="9.97146" cy="3.60388" rx="3.6872" ry="2.78829" transform="rotate(71.0457 9.97146 3.60388)" fill="#0D986A"/>
<ellipse cx="16.2509" cy="4.09723" rx="2.99175" ry="2.24613" transform="rotate(85.1851 16.2509 4.09723)" fill="#0D986A"/>
<path d="M20 12.4478C20 14.623 16.9917 16.6595 15.1867 16.6595C13.2408 19.6679 12.1783 20.2695 10.9749 20.2695C9.30875 20.2695 7.38604 17.9554 7.38604 14.623C7.38604 11.2907 10.0936 8.37487 13.8425 8.37487C17.5914 8.37487 20 10.2725 20 12.4478Z" fill="#0D986A"/>
</svg>
