<svg width="29" height="24" viewBox="0 0 29 24" fill="none" xmlns="http://www.w3.org/2000/svg">
<path d="M6.43858 10.1399H3.39681C2.97705 10.1399 2.63637 10.479 2.63637 10.9003C2.63637 11.3201 2.97705 11.6607 3.39681 11.6607H4.15725C4.15725 15.8599 7.56099 19.2652 11.7617 19.2652C15.9608 19.2652 19.3661 15.8599 19.3661 11.6607H20.1265C20.5448 11.6607 20.887 11.3201 20.887 10.9003C20.887 10.4805 20.5448 10.1399 20.1265 10.1399H17.0848C16.665 10.1399 16.3243 10.4805 16.3243 10.9003C16.3243 11.3201 16.665 11.6607 17.0848 11.6607H17.8452C17.8452 15.0189 15.1213 17.7443 11.7617 17.7443C8.40204 17.7443 5.67814 15.0189 5.67814 11.6607H6.43858C6.85682 11.6607 7.19902 11.3201 7.19902 10.9003C7.19902 10.4805 6.85682 10.1399 6.43858 10.1399Z" fill="#002140"/>
<path d="M22.3221 5.48994L22.7523 5.05974L22.3221 5.48994ZM20.4681 3.63594L20.0379 4.06613L20.4681 3.63594ZM4.49037 3.65035H19.0341V2.43357H4.49037V3.65035ZM1.63257 5.92013L3.48657 4.06613L2.62618 3.20574L0.772179 5.05974L1.63257 5.92013ZM1.21679 21.2937V6.92393H6.1647e-06V21.2937H1.21679ZM20.8881 22.7133H2.63637V23.9301H20.8881V22.7133ZM22.3077 6.92393V21.2937H23.5245V6.92393H22.3077ZM20.0379 4.06613L21.8919 5.92013L22.7523 5.05974L20.8983 3.20574L20.0379 4.06613ZM23.5245 6.92393C23.5245 6.22472 23.2467 5.55415 22.7523 5.05974L21.8919 5.92013C22.1581 6.18636 22.3077 6.54743 22.3077 6.92393H23.5245ZM20.8881 23.9301C22.3441 23.9301 23.5245 22.7497 23.5245 21.2937H22.3077C22.3077 22.0777 21.6721 22.7133 20.8881 22.7133V23.9301ZM6.1647e-06 21.2937C6.1647e-06 22.7497 1.18035 23.9301 2.63637 23.9301V22.7133C1.85236 22.7133 1.21679 22.0777 1.21679 21.2937H6.1647e-06ZM0.772179 5.05974C0.277765 5.55415 6.1647e-06 6.22472 6.1647e-06 6.92393H1.21679C1.21679 6.54743 1.36635 6.18636 1.63257 5.92013L0.772179 5.05974ZM19.0341 3.65035C19.4106 3.65035 19.7717 3.79991 20.0379 4.06613L20.8983 3.20574C20.4039 2.71132 19.7333 2.43357 19.0341 2.43357V3.65035ZM4.49037 2.43357C3.79116 2.43357 3.12059 2.71132 2.62618 3.20574L3.48657 4.06613C3.7528 3.79991 4.11387 3.65035 4.49037 3.65035V2.43357Z" fill="#002140"/>
<circle cx="23.9301" cy="5.06993" r="5.06993" fill="#0D986A"/>
</svg>
