<svg width="26" height="25" viewBox="0 0 26 25" fill="none" xmlns="http://www.w3.org/2000/svg">
<path d="M1.49526 6.87584C2.52758 6.42778 3.84787 5.69796 4.97943 4.56641C5.96777 3.57807 6.64973 2.47067 7.10481 1.54108C7.24184 1.26117 7.51854 1.01376 7.87464 0.872619C8.23073 0.731481 8.60044 0.722618 8.89048 0.832964C9.94902 1.23569 11.3531 1.61231 12.913 1.61231C14.4729 1.61231 15.877 1.23569 16.9356 0.832964C17.2256 0.722617 17.5953 0.731481 17.9514 0.872618C18.3075 1.01376 18.5842 1.26117 18.7212 1.54108C19.1763 2.47067 19.8583 3.57807 20.8466 4.56641C21.9782 5.69795 23.2984 6.42776 24.3307 6.8758C24.8818 7.11497 25.1869 7.78012 25.0239 8.2987C24.6674 9.4321 24.2825 10.9958 24.2825 12.5C24.2825 14.0042 24.6674 15.5679 25.0239 16.7013C25.1869 17.2199 24.8818 17.885 24.3307 18.1242C23.2984 18.5722 21.9782 19.3021 20.8466 20.4336C19.8583 21.4219 19.1763 22.5293 18.7212 23.4589C18.5842 23.7388 18.3075 23.9862 17.9514 24.1274C17.5953 24.2685 17.2256 24.2774 16.9356 24.167C15.877 23.7643 14.4729 23.3877 12.913 23.3877C11.3531 23.3877 9.94902 23.7643 8.89048 24.167C8.60044 24.2774 8.23073 24.2685 7.87464 24.1274C7.51854 23.9862 7.24184 23.7388 7.10482 23.4589C6.64973 22.5293 5.96777 21.4219 4.97943 20.4336C3.84787 19.302 2.52759 18.5722 1.49528 18.1242C0.944231 17.885 0.63905 17.2199 0.802127 16.7013C1.15856 15.5679 1.54348 14.0042 1.54348 12.5C1.54348 10.9958 1.15856 9.4321 0.80213 8.2987C0.639051 7.78014 0.944225 7.115 1.49526 6.87584Z" stroke="#0D986A" stroke-width="1.5"/>
<circle cx="10.8952" cy="8.45976" r="1.52014" stroke="#2BA57D"/>
<circle cx="14.9355" cy="17.5504" r="1.52014" stroke="#2BA57D"/>
<path d="M17.4479 8.45766L8.87272 17.0328" stroke="#2BA57D" stroke-linecap="round"/>
</svg>
