<svg width="16" height="21" viewBox="0 0 16 21" fill="none" xmlns="http://www.w3.org/2000/svg">
<path fill-rule="evenodd" clip-rule="evenodd" d="M3.07692 13.3877C2.05732 13.3877 1.23077 14.1918 1.23077 15.1836V17.5782C1.23077 18.5701 2.05732 19.3741 3.07692 19.3741H12.9231C13.9427 19.3741 14.7692 18.5701 14.7692 17.5782V15.1836C14.7692 14.1918 13.9427 13.3877 12.9231 13.3877H3.07692ZM0 15.1836C0 13.5305 1.37758 12.1904 3.07692 12.1904H12.9231C14.6224 12.1904 16 13.5305 16 15.1836V17.5782C16 19.2313 14.6224 20.5714 12.9231 20.5714H3.07692C1.37758 20.5714 0 19.2313 0 17.5782V15.1836Z" fill="#004A61"/>
<path fill-rule="evenodd" clip-rule="evenodd" d="M7.99994 8.66666C10.0513 8.66666 11.7142 7.00372 11.7142 4.95238C11.7142 2.90104 10.0513 1.23809 7.99994 1.23809C5.9486 1.23809 4.28566 2.90104 4.28566 4.95238C4.28566 7.00372 5.9486 8.66666 7.99994 8.66666ZM7.99994 9.90475C10.7351 9.90475 12.9523 7.6875 12.9523 4.95238C12.9523 2.21725 10.7351 0 7.99994 0C5.26482 0 3.04757 2.21725 3.04757 4.95238C3.04757 7.6875 5.26482 9.90475 7.99994 9.90475Z" fill="#004A61"/>
</svg>
