<svg width="278" height="173" viewBox="0 0 278 173" fill="none" xmlns="http://www.w3.org/2000/svg">
<mask id="mask0_1_148" style="mask-type:alpha" maskUnits="userSpaceOnUse" x="-3" y="-3" width="281" height="176">
<path d="M-2.2657 21.3509C-2.2657 7.40942 9.56263 -3.60416 23.4686 -2.61088L255.689 13.9763C268.26 14.8742 278 25.3347 278 37.938V148.696C278 161.964 267.245 172.719 253.977 172.719H21.7571C8.48966 172.719 -2.2657 161.964 -2.2657 148.696V21.3509Z" fill="#F5EDA8"/>
</mask>
<g mask="url(#mask0_1_148)">
<g style="mix-blend-mode:screen" opacity="0.7">
<path fill-rule="evenodd" clip-rule="evenodd" d="M319.375 72.7821C320.131 71.6085 320.849 70.4936 321.534 69.442C324.964 64.1799 330.586 58.335 336.299 52.3962L336.655 52.0255C342.505 45.9427 348.416 39.7614 352.288 33.899C360.003 22.2177 359.635 11.7909 334.029 6.23916C301.707 -0.768728 243.145 -1.25104 185.536 5.37203C156.73 8.6838 128.307 13.7557 103.619 20.6157C79.0159 27.452 58.147 36.0525 44.1042 46.5371C24.418 61.2353 11.3974 72.0562 5.4293 82.2854C-0.540023 92.5168 0.514985 102.214 9.30888 114.577C12.7577 119.425 12.0308 125.296 10.0124 131.551C9.12617 134.297 7.98814 137.124 6.84183 139.973C6.68324 140.367 6.52452 140.761 6.36626 141.156C5.0625 144.407 3.7901 147.677 2.89569 150.901C-0.674609 163.771 1.77542 175.896 32.5991 182.579C44.4451 185.147 54.4944 187.917 63.6019 190.427C66.9988 191.363 70.2648 192.263 73.444 193.103C85.1827 196.205 95.7135 198.48 107.358 198.818C118.936 199.154 131.534 197.573 147.493 192.983C163.572 188.359 183.283 180.618 209.001 168.481C245.78 151.124 270.623 131.474 287.937 113.558C303.447 97.5089 312.829 82.944 319.375 72.7821ZM320.979 72.4564C307.136 93.9484 280.464 135.356 209.887 168.663C125.445 208.513 103.055 202.343 62.1418 191.067C53.0397 188.558 43.0209 185.797 31.1981 183.234C-8.5792 174.61 -1.47748 156.964 5.2073 140.355C8.96463 131.02 12.5902 122.011 7.68565 115.116C-9.93437 90.3449 3.30676 76.0711 42.7225 46.6424C100.297 3.65604 270.465 -8.50079 335.43 5.58441C374.487 14.0523 355.483 33.8088 337.851 52.1399C332.122 58.0953 326.538 63.9003 323.137 69.1188C322.453 70.1689 321.735 71.283 320.979 72.4564Z" fill="#FFF1C2"/>
<path fill-rule="evenodd" clip-rule="evenodd" d="M316.659 72.0684C317.311 71.053 317.93 70.0883 318.521 69.1783C321.48 64.6197 326.338 59.5579 331.268 54.4224L331.578 54.0989C336.629 48.836 341.725 43.4944 345.058 38.4289C351.695 28.3412 351.351 19.336 329.194 14.532C301.202 8.46297 250.511 8.02904 200.669 13.7403C175.746 16.5962 151.181 20.9723 129.869 26.8875C108.642 32.7791 90.6695 40.1856 78.5844 49.2189C61.5784 61.9303 50.3509 71.2765 45.2193 80.1115C40.0864 88.9488 41.0216 97.3319 48.6699 108.03C51.6757 112.234 51.0603 117.323 49.3285 122.738C48.568 125.115 47.5896 127.563 46.6045 130.028C46.4684 130.369 46.3322 130.71 46.1964 131.051C45.0763 133.864 43.9839 136.692 43.2187 139.48C40.1652 150.605 42.3178 161.084 68.9999 166.869C79.2695 169.095 87.9847 171.496 95.8801 173.671C98.8241 174.482 101.654 175.261 104.408 175.989C114.584 178.676 123.698 180.644 133.761 180.939C143.756 181.232 154.607 179.873 168.341 175.927C182.194 171.947 199.203 165.273 221.43 154.783C253.175 139.802 274.615 122.826 289.555 107.334C302.936 93.4561 311.018 80.8607 316.659 72.0684ZM318.265 71.7421C306.334 90.3367 283.349 126.162 222.317 154.965C149.294 189.426 129.885 184.08 94.4201 174.311C86.5301 172.137 77.9771 169.726 67.7306 167.504C33.2566 160.03 39.2267 144.781 44.9703 130.41C48.1986 122.333 51.3137 114.538 47.0469 108.57C31.7181 87.1285 43.1464 74.7802 77.2019 49.3247C126.947 12.1419 274.291 1.66996 330.595 13.8772C364.444 21.2162 348.04 38.3074 332.82 54.1656C327.875 59.3176 323.055 64.3394 320.124 68.8544C319.534 69.763 318.916 70.7268 318.265 71.7421Z" fill="#FFF1C2"/>
</g>
<g style="mix-blend-mode:screen" opacity="0.7">
<path fill-rule="evenodd" clip-rule="evenodd" d="M286.285 74.6636C286.871 73.8389 287.427 73.0555 287.957 72.3164C290.608 68.6184 294.785 64.5026 299.03 60.3207L299.295 60.0597C303.641 55.7765 308.035 51.424 311.024 47.3039C316.979 39.0942 317.363 31.7988 300.295 28.0286C278.75 23.2695 238.973 23.1952 199.41 28.0893C179.627 30.5364 159.998 34.2137 142.799 39.1256C125.659 44.0205 110.95 50.1332 100.767 57.5339C86.4908 67.9087 76.9817 75.5401 72.3025 82.7257C67.6224 89.9128 67.7496 96.6943 72.9751 105.307C75.0245 108.685 74.1732 112.796 72.4206 117.183C71.6512 119.109 70.7055 121.093 69.7531 123.091C69.6213 123.367 69.4894 123.644 69.3578 123.921C68.2738 126.202 67.2099 128.497 66.4057 130.757C63.1959 139.78 64.1236 148.254 84.6694 152.793C92.5655 154.537 99.2281 156.43 105.266 158.146C107.518 158.786 109.684 159.401 111.794 159.974C119.584 162.092 126.604 163.637 134.499 163.822C142.348 164.005 151.008 162.842 162.136 159.557C173.347 156.249 187.217 150.743 205.436 142.134C231.493 129.821 249.576 115.958 262.434 103.342C273.954 92.04 281.218 81.8048 286.285 74.6636ZM287.396 74.4285C276.678 89.5316 256.029 118.63 206.028 142.257C146.204 170.525 131.359 166.307 104.235 158.6C98.2002 156.885 91.5579 154.998 83.6773 153.257C57.1633 147.401 63.0642 135.02 68.6187 123.366C71.7407 116.816 74.7533 110.495 71.8389 105.692C61.3687 88.4351 71.2378 78.3862 99.8211 57.6138C141.573 27.2715 257.984 17.9988 301.287 27.5641C327.321 33.3147 313.201 47.2264 300.1 60.1344C295.844 64.328 291.695 68.4156 289.066 72.083C288.537 72.821 287.981 73.6039 287.396 74.4285Z" fill="#FFF1C2"/>
<path fill-rule="evenodd" clip-rule="evenodd" d="M284.483 74.1764C284.988 73.4628 285.467 72.7849 285.924 72.1454C288.213 68.9418 291.824 65.3776 295.487 61.7614L295.717 61.5336C299.471 57.8277 303.26 54.0666 305.833 50.5066C310.959 43.417 311.273 37.1163 296.504 33.8539C277.846 29.7325 243.415 29.6566 209.187 33.8777C192.072 35.9884 175.108 39.1613 160.261 43.3968C145.474 47.6154 132.806 52.8796 124.042 59.2557C111.708 68.2281 103.508 74.8194 99.4821 81.0255C95.4553 87.2332 95.581 93.0957 100.129 100.548C101.917 103.477 101.189 107.041 99.682 110.838C99.0204 112.506 98.2063 114.223 97.3868 115.953C97.2736 116.192 97.1602 116.431 97.0472 116.67C96.1146 118.644 95.2 120.628 94.5103 122.583C91.7577 130.382 92.5835 137.706 110.369 141.634C117.214 143.146 122.992 144.787 128.227 146.274C130.179 146.828 132.055 147.361 133.883 147.858C140.636 149.693 146.712 151.029 153.534 151.19C160.311 151.351 167.769 150.35 177.345 147.527C187.004 144.679 198.972 139.932 214.719 132.491C237.209 121.864 252.815 109.888 263.913 98.9781C273.854 89.206 280.113 80.3549 284.483 74.1764ZM285.594 73.9408C276.353 87.0076 258.549 112.183 215.31 132.615C163.576 157.06 150.708 153.406 127.195 146.728C121.964 145.243 116.297 143.594 109.467 142.085C86.4883 137.009 91.4741 126.311 96.2527 116.227C98.9386 110.56 101.53 105.091 98.993 100.933C89.8777 85.9969 98.3974 77.3037 123.095 59.3359C159.172 33.0905 259.966 25.0994 297.496 33.3894C320.059 38.3733 307.868 50.4082 296.558 61.5747C292.883 65.2025 289.301 68.7386 287.034 71.9116C286.578 72.55 286.099 73.2274 285.594 73.9408Z" fill="#FFF1C2"/>
</g>
</g>
</svg>
