<svg width="89" height="89" viewBox="0 0 89 89" fill="none" xmlns="http://www.w3.org/2000/svg">
<g filter="url(#filter0_d_1_462)">
<path d="M17.1258 22.0099C18.4177 17.1652 22.1885 13.3731 27.0258 12.0538L31.7973 10.7525C40.1134 8.48448 48.885 8.48448 57.2011 10.7525L61.9726 12.0538C66.8099 13.3731 70.5807 17.1652 71.8726 22.0099L73.2883 27.3187C75.5103 35.6513 75.4597 44.427 73.1416 52.7334L71.9338 57.0614C70.6017 61.8349 66.858 65.5566 62.0766 66.8606L57.2011 68.1903C48.885 70.4583 40.1134 70.4583 31.7973 68.1903L26.9218 66.8606C22.1404 65.5566 18.3968 61.8349 17.0646 57.0614L15.8568 52.7334C13.5387 44.427 13.4881 35.6513 15.7101 27.3187L17.1258 22.0099Z" fill="#0D986A"/>
</g>
<circle opacity="0.6" cx="32.4307" cy="36.4542" r="4.02288" fill="#F1F2EF"/>
<circle opacity="0.6" cx="57.297" cy="36.4542" r="4.02288" fill="#F1F2EF"/>
<path d="M32.4307 38.4657C34.5259 55.8982 55.4784 55.8982 57.5737 38.4657" stroke="#F1F2EF" stroke-width="1.5"/>
<defs>
<filter id="filter0_d_1_462" x="0" y="0" width="88.9984" height="89" filterUnits="userSpaceOnUse" color-interpolation-filters="sRGB">
<feFlood flood-opacity="0" result="BackgroundImageFix"/>
<feColorMatrix in="SourceAlpha" type="matrix" values="0 0 0 0 0 0 0 0 0 0 0 0 0 0 0 0 0 0 127 0" result="hardAlpha"/>
<feOffset dy="5"/>
<feGaussianBlur stdDeviation="7"/>
<feColorMatrix type="matrix" values="0 0 0 0 0.12549 0 0 0 0 0.223529 0 0 0 0 0.00392157 0 0 0 0.28 0"/>
<feBlend mode="multiply" in2="BackgroundImageFix" result="effect1_dropShadow_1_462"/>
<feBlend mode="normal" in="SourceGraphic" in2="effect1_dropShadow_1_462" result="shape"/>
</filter>
</defs>
</svg>
