<svg width="278" height="176" viewBox="0 0 278 176" fill="none" xmlns="http://www.w3.org/2000/svg">
<mask id="mask0_1_126" style="mask-type:alpha" maskUnits="userSpaceOnUse" x="0" y="0" width="281" height="176">
<path opacity="0.8" d="M0 24.032C0 10.0859 11.8322 -0.93128 25.7428 0.0623334L258.04 16.655C270.615 17.5532 280.358 28.0172 280.358 40.6246V151.419C280.358 164.691 269.599 175.45 256.328 175.45H24.0307C10.7589 175.45 0 164.691 0 151.419V24.032Z" fill="#DEEC8A"/>
</mask>
<g mask="url(#mask0_1_126)">
<g style="mix-blend-mode:screen" opacity="0.7">
<path fill-rule="evenodd" clip-rule="evenodd" d="M148.597 -18.8302C150.369 -18.2756 152.052 -17.7487 153.638 -17.2578C161.577 -14.801 170.124 -13.4472 178.809 -12.0716L179.351 -11.9857C188.247 -10.5762 197.292 -9.11757 206.128 -6.41955C223.735 -1.04345 240.532 9.25732 253.261 34.0134C269.329 65.2627 278.828 110.14 276.776 147.465C275.749 166.129 271.84 182.81 264.503 194.941C257.191 207.029 246.49 214.59 231.747 215.163C211.079 215.966 195.644 215.44 180.108 210.135C164.568 204.828 148.841 194.708 127.68 176.156C119.381 168.88 110.062 163.789 100.32 159.308C96.0424 157.34 91.6717 155.486 87.2692 153.618C86.6601 153.359 86.0505 153.1 85.4404 152.841C80.4144 150.705 75.3522 148.527 70.3086 146.106C50.1755 136.444 30.3415 122.932 15.0188 93.1317C9.13007 81.679 3.1858 71.3955 -2.20132 62.0758C-4.21066 58.5997 -6.14248 55.2576 -7.965 52.039C-14.6943 40.155 -19.9164 29.9816 -22.1937 20.8254C-24.4579 11.722 -23.7963 3.68706 -18.8035 -4.00525C-13.7735 -11.7549 -4.28035 -19.2638 11.3761 -27.1029C33.7668 -38.3137 61.6183 -38.2683 87.806 -34.1794C111.266 -30.5164 133.255 -23.6329 148.597 -18.8302ZM148.881 -19.7342C116.433 -29.8922 53.9185 -49.4632 10.9519 -27.9501C-40.4557 -2.21055 -27.2115 20.7018 -3.01121 62.5681C2.37274 71.8823 8.29896 82.1347 14.1762 93.565C33.9499 132.022 61.2247 143.595 86.8982 154.489C101.329 160.613 115.253 166.521 127.055 176.868C169.455 214.04 190.402 217.718 231.784 216.11C292.229 213.761 286.399 96.3884 254.104 33.5802C234.689 -4.17968 205.797 -8.75608 178.989 -13.0023C170.28 -14.3818 161.791 -15.7265 153.918 -18.1629C152.334 -18.6531 150.652 -19.1797 148.881 -19.7342Z" fill="#FFF1C2"/>
<path fill-rule="evenodd" clip-rule="evenodd" d="M150.147 -16.085C151.681 -15.6032 153.137 -15.1454 154.511 -14.7188C161.389 -12.5818 168.793 -11.4013 176.305 -10.2035L176.778 -10.128C184.476 -8.90012 192.294 -7.63081 199.931 -5.28985C215.14 -0.627951 229.651 8.28804 240.666 29.7098C254.581 56.7725 262.829 95.6339 261.084 127.945C260.211 144.102 256.844 158.527 250.521 169.004C244.223 179.44 235.008 185.952 222.304 186.435C204.427 187.115 191.092 186.647 177.67 182.047C164.245 177.446 150.645 168.68 132.328 152.597C125.129 146.276 117.051 141.852 108.614 137.961C104.909 136.252 101.124 134.641 97.3132 133.019C96.7867 132.795 96.2597 132.571 95.7323 132.346C91.3824 130.492 87.0034 128.602 82.6409 126.503C65.2318 118.125 48.0862 106.421 34.8223 80.6252C29.7171 70.6965 24.564 61.7794 19.8956 53.7011C18.1549 50.6889 16.4815 47.7933 14.9032 45.0054C9.07161 34.7046 4.55402 25.901 2.58127 17.986C0.621604 10.1234 1.18814 3.20115 5.4782 -3.4225C9.80532 -10.1034 17.988 -16.5881 31.5197 -23.3634C50.8459 -33.0399 74.9091 -32.9842 97.5602 -29.4235C117.85 -26.2341 136.87 -20.2572 150.147 -16.085ZM150.432 -16.9887C122.352 -25.813 68.2516 -42.8144 31.0955 -24.2105C-13.3602 -1.95181 -1.88406 17.9068 19.0857 54.1933C23.7509 62.2662 28.8967 71.0703 33.9903 80.9766C51.1277 114.306 74.7231 124.435 96.9432 133.892C109.433 139.207 121.484 144.336 131.703 153.308C168.415 185.542 186.54 188.744 222.34 187.382C274.634 185.393 269.498 83.7109 241.509 29.2766C224.682 -3.44891 199.682 -7.4353 176.486 -11.1341C168.95 -12.3357 161.605 -13.507 154.792 -15.6236C153.421 -16.0495 151.965 -16.5069 150.432 -16.9887Z" fill="#FFF1C2"/>
</g>
<g style="mix-blend-mode:screen" opacity="0.7">
<path fill-rule="evenodd" clip-rule="evenodd" d="M150.542 4.78752C151.781 5.13808 152.957 5.47108 154.067 5.78114C159.617 7.3326 165.611 8.12957 171.702 8.93934L172.082 8.98989C178.32 9.81965 184.663 10.6806 190.841 12.3828C203.153 15.7746 214.826 22.509 223.436 39.0781C234.305 59.9932 240.363 90.2179 238.401 115.495C237.419 128.135 234.437 139.473 229.107 147.78C223.795 156.059 216.162 161.322 205.783 161.915C191.232 162.745 180.381 162.604 169.526 159.232C158.668 155.858 147.745 149.231 133.117 136.976C127.379 132.169 120.895 128.855 114.104 125.959C111.122 124.688 108.073 123.494 105.002 122.291C104.577 122.125 104.152 121.959 103.726 121.792C100.22 120.417 96.6894 119.013 93.1751 117.446C79.1462 111.19 65.3814 102.326 55.0165 82.3807C51.0331 74.7155 46.9945 67.8419 43.3343 61.6125C41.9691 59.289 40.6566 57.0552 39.4192 54.9033C34.8506 46.958 31.3184 40.1488 29.8437 33.9869C28.3774 27.8604 28.9545 22.416 32.5738 17.1432C36.22 11.831 43.0026 6.61975 54.1256 1.09937C70.0327 -6.79548 89.625 -7.15198 107.991 -4.75013C124.443 -2.5985 139.816 1.75211 150.542 4.78752ZM150.754 4.17207C128.07 -2.2481 84.364 -14.6176 53.8389 0.53217C17.3171 18.6583 26.3155 33.973 42.7577 61.9568C46.4157 68.1825 50.4421 75.0352 54.4177 82.6854C67.7933 108.424 86.8196 115.874 104.729 122.886C114.795 126.828 124.508 130.631 132.667 137.466C161.978 162.022 176.662 164.218 205.796 162.555C248.35 160.126 245.88 80.8107 224.035 38.7734C210.902 13.5009 190.641 10.8069 171.841 8.30726C165.734 7.49516 159.781 6.7036 154.276 5.165C153.169 4.85538 151.993 4.5226 150.754 4.17207Z" fill="#FFF1C2"/>
<path fill-rule="evenodd" clip-rule="evenodd" d="M151.595 6.62298C152.667 6.92759 153.685 7.21698 154.645 7.48647C159.454 8.83638 164.647 9.53202 169.914 10.2378L170.246 10.2823C175.644 11.0059 181.126 11.7558 186.466 13.2331C197.101 16.1752 207.185 22.0046 214.636 36.3421C224.048 54.4551 229.311 80.6279 227.634 102.509C226.795 113.451 224.226 123.255 219.632 130.43C215.056 137.577 208.483 142.11 199.54 142.613C186.954 143.322 177.58 143.191 168.202 140.266C158.821 137.34 149.376 131.599 136.714 120.974C131.738 116.799 126.116 113.919 120.235 111.404C117.653 110.299 115.012 109.262 112.354 108.218C111.987 108.074 111.619 107.93 111.251 107.785C108.217 106.591 105.163 105.373 102.123 104.014C89.9926 98.5892 78.0938 90.9107 69.1216 73.6454C65.6683 67.0001 62.1672 61.0399 58.9954 55.6403C57.8127 53.6269 56.6758 51.6914 55.6043 49.8275C51.6451 42.9407 48.5895 37.0483 47.3117 31.7217C46.0425 26.4304 46.5373 21.74 49.6473 17.1998C52.7842 12.6204 58.6307 8.12007 68.2441 3.34887C81.9742 -3.46547 98.9013 -3.76231 114.786 -1.66864C129.015 0.206736 142.312 3.9853 151.595 6.62298ZM151.808 6.00772C132.177 0.428977 94.3546 -10.3194 67.9575 2.7817C36.3745 18.4566 44.1716 31.7302 58.4188 55.9845C61.5884 61.3804 65.086 67.2644 68.5315 73.8947C80.1238 96.2019 96.5818 102.725 112.082 108.813C120.794 112.235 129.2 115.537 136.264 121.465C161.642 142.759 174.348 144.672 199.552 143.253C236.367 141.181 234.167 72.47 215.234 36.0373C203.852 14.1343 186.321 11.7853 170.055 9.60582C164.77 8.89773 159.619 8.20753 154.855 6.87053C153.897 6.60149 152.879 6.31231 151.808 6.00772Z" fill="#FFF1C2"/>
</g>
</g>
</svg>
