<svg width="30" height="21" viewBox="0 0 30 21" fill="none" xmlns="http://www.w3.org/2000/svg">
<path d="M18.4386 20.2384C16.9655 8.45374 2.23471 8.45374 0.761634 20.2384" stroke="white" stroke-width="1.5" stroke-linecap="round"/>
<path fill-rule="evenodd" clip-rule="evenodd" d="M12.3113 15.1275C11.4614 16.4956 10.8585 18.1705 10.6118 20.1438C10.5596 20.5612 10.8557 20.9418 11.273 20.994C11.6904 21.0461 12.071 20.7501 12.1231 20.3327C12.3241 18.7255 12.7826 17.3626 13.4215 16.2377L12.3113 15.1275ZM17.1458 12.8067C18.1258 12.3745 19.1701 12.1614 20.2059 12.1614C23.8495 12.1614 27.5969 14.7979 28.2887 20.3327C28.3409 20.7501 28.7215 21.0461 29.1389 20.994C29.5562 20.9418 29.8523 20.5612 29.8001 20.1438C29.0189 13.894 24.6644 10.6382 20.2059 10.6382C18.7543 10.6382 17.3137 10.9834 16.0038 11.6647L17.1458 12.8067Z" fill="white"/>
<circle opacity="0.6" cx="8.80672" cy="4.50943" r="4.50943" fill="white"/>
<circle opacity="0.6" cx="19.8458" cy="4.50943" r="4.50943" fill="white"/>
</svg>
